# xmcd
#
# Track frame offsets:
#	150
#	23845
#	42330
#	74705
#	91472
#	119272
#	139140
#	173815
#	197320
#	228835
#	249642
#	260412
#	285057
#	295387
#	307225
#
# Disc length: 4265 seconds
#
# Revision: 1
# Processed by: cddbd v1.4PL0 Copyright (c) Steve Scherf et al.
# Submitted via: audiograbber 1.81.03
#
DISCID=d910a70f
DTITLE=Various Artist -  Chicago Blues 2 (JSP) - CD 1
DYEAR=1997
DGENRE=Blues
TTITLE0=Guitar Shorty - You Gave Me The Blues Baby
TTITLE1=Jordan Patterson and Bobby Rush - No Educated Woman
TTITLE2=Lefty Dizz - You Don't Love Poor Me No More
TTITLE3=Louisiana Red - Valerie
TTITLE4=Louisiana Red - I'm Leaving
TTITLE5=Big Moose Walker - Rambling Woman
TTITLE6=Jimmy Dawkins - Highway Man Blues
TTITLE7=Hubert Sumlin - All I Can Do
TTITLE8=Hubert Sumlin - Sometimes I'm Right
TTITLE9=Jimmy Rogers - Mean Red Spider
TTITLE10=Johnny Mars - Mighty Mars
TTITLE11=Lefty Dizz - Teardrops On My Pillow
TTITLE12=Left Hand Frank - Baby Please
TTITLE13=Jimmy Rogers - Crazy Woman Blues
TTITLE14=John Lee Granderson - Rollin' and Tumblin'
EXTD=
EXTT0=
EXTT1=
EXTT2=
EXTT3=
EXTT4=
EXTT5=
EXTT6=
EXTT7=
EXTT8=
EXTT9=
EXTT10=
EXTT11=
EXTT12=
EXTT13=
EXTT14=
PLAYORDER=
